<?xml version="1.0" encoding="UTF-8"?>
<svg id="Layer_2" data-name="Layer 2" xmlns="http://www.w3.org/2000/svg" viewBox="0 0 128 100">
  <defs>
    <style>
      .cls-1 {
        fill: #fff;
        stroke-width: 0px;
      }
    </style>
  </defs>
  <g id="Layer_1-2" data-name="Layer 1">
    <g>
      <path class="cls-1" d="m97,24c0-13.25-10.75-24-24-24s-24,10.75-24,24,10.75,24,24,24c13.25-.02,23.98-10.75,24-24Zm-37,0c0-7.18,5.82-13,13-13s13,5.82,13,13-5.82,13-13,13c-7.18,0-12.99-5.82-13-13Z"/>
      <circle class="cls-1" cx="73" cy="24" r="9"/>
      <path class="cls-1" d="m27,6c-9.94,0-18,8.06-18,18s8.06,18,18,18,18-8.06,18-18c0-9.94-8.06-17.99-18-18Zm0,27c-4.97,0-9-4.03-9-9s4.03-9,9-9,9,4.03,9,9c0,4.97-4.03,8.99-9,9Z"/>
      <circle class="cls-1" cx="27" cy="24" r="5"/>
      <path class="cls-1" d="m38.29,49.18c-.65.23-1.24.62-1.69,1.14-.95,1.08-1.24,2.59-.77,3.95l7.9,22.66c.48,1.36,1.65,2.36,3.06,2.62.68.13,1.38.07,2.03-.16.69-.24,1.29-.66,1.76-1.22l14.93-17.92c1.41-1.7,1.18-4.22-.52-5.64-.5-.42-1.1-.71-1.74-.84l-22.84-4.75c-.71-.15-1.45-.1-2.13.14Z"/>
      <path class="cls-1" d="m125.68,23.37c-1.42-.65-3.08-.42-4.27.59l-15.4,13.14v-.1c0-3.46-2.23-6.53-5.53-7.6-.26,1.32-.61,2.61-1.06,3.87,1.55.59,2.58,2.07,2.58,3.73v49c0,2.21-1.79,4-4,4H8c-2.21,0-4-1.79-4-4v-49c0-1.82,1.24-3.41,3-3.86-.56-1.22-1.01-2.49-1.34-3.79C2.3,30.38,0,33.48,0,37v49c0,4.42,3.58,7.99,8,8h90c4.42,0,8-3.58,8-8v-.1l15.4,13.14c1.68,1.43,4.21,1.23,5.64-.45.62-.72.96-1.64.96-2.6V27c0-1.56-.91-2.98-2.32-3.63Z"/>
    </g>
  </g>
</svg>